<svg width="20" height="20" viewBox="0 0 20 20" fill="none" xmlns="http://www.w3.org/2000/svg">
<path d="M10 20C15.5228 20 20 15.5228 20 10C20 4.47715 15.5228 0 10 0C4.47715 0 0 4.47715 0 10C0 15.5228 4.47715 20 10 20Z" fill="#1E1C1D"/>
<path d="M3.58292 14.8457C3.58292 14.8751 3.62698 14.9191 3.68571 14.9779C3.74445 15.0366 3.80319 15.11 3.89129 15.2128C3.95003 15.2862 4.02345 15.3743 4.09687 15.4771C4.17029 15.5799 4.2584 15.6974 4.33182 15.8149C4.40524 15.9323 4.49335 16.0645 4.56677 16.182C4.64019 16.3141 4.71361 16.4463 4.78703 16.5784C4.90451 16.7987 4.97793 16.9456 4.99261 17.0337C5.0073 17.1218 4.97793 17.1218 4.88982 17.063C4.78703 16.9896 4.68424 16.8868 4.55209 16.7547C4.41993 16.6225 4.30245 16.4757 4.19966 16.3141C4.15561 16.2554 4.12624 16.1967 4.09687 16.1526C4.0675 16.1085 4.05282 16.0645 4.03814 16.0204C4.02345 15.9764 3.99408 15.9323 3.9794 15.8736C3.95003 15.8149 3.92066 15.7561 3.87661 15.6827C3.7885 15.5212 3.68571 15.3596 3.59761 15.2275C3.49482 15.0953 3.39203 14.9925 3.30392 14.9485C3.2305 14.9191 3.20113 14.9191 3.20113 14.9485C3.20113 14.9925 3.2305 15.0513 3.27455 15.1394C3.3186 15.2128 3.37734 15.2862 3.43608 15.3743C3.49482 15.4624 3.56824 15.5505 3.64166 15.6533C3.71508 15.7561 3.7885 15.8442 3.86192 15.9323C3.93535 16.0204 3.99408 16.1232 4.0675 16.1967C4.18498 16.3582 4.2584 16.461 4.27308 16.5197C4.30245 16.5638 4.27308 16.5491 4.17029 16.4757C4.08219 16.3875 3.96471 16.2848 3.81787 16.1379C3.67103 15.9911 3.52419 15.8442 3.37734 15.668C3.33329 15.624 3.28924 15.5652 3.24518 15.5065C3.20113 15.4478 3.14239 15.3743 3.09834 15.3156C3.05429 15.2422 3.01024 15.1834 2.96618 15.1247C2.92213 15.066 2.87808 15.0072 2.84871 14.9485C2.80465 14.8751 2.7606 14.8016 2.71655 14.7282C2.68718 14.6695 2.64313 14.6107 2.61376 14.552C2.58439 14.4933 2.55502 14.4492 2.52565 14.3905C2.49629 14.3317 2.46692 14.2877 2.43755 14.229C2.36413 14.0968 2.2907 13.9646 2.23197 13.8325C2.15855 13.715 2.09981 13.5828 2.04107 13.4654C1.98233 13.3479 1.9236 13.2304 1.87955 13.1276C1.82081 13.0102 1.77675 12.9074 1.74739 12.8046C1.6446 12.5109 1.67397 12.32 1.80612 12.2172C1.93828 12.1144 2.17323 12.1144 2.49629 12.2172C2.64313 12.2613 2.78997 12.3347 2.92213 12.4228C3.05429 12.5109 3.17176 12.6431 3.28924 12.7752C3.39203 12.9221 3.49482 13.0836 3.56824 13.2598C3.65634 13.436 3.71508 13.6416 3.75913 13.8619C3.81787 14.0968 3.83256 14.273 3.81787 14.4052C3.80319 14.5226 3.77382 14.6107 3.74445 14.6695C3.7004 14.7282 3.67103 14.7576 3.62698 14.7723C3.58292 14.787 3.58292 14.8163 3.59761 14.8457H3.58292ZM2.70186 13.2745C2.58439 13.2304 2.51097 13.2451 2.4816 13.3332C2.45223 13.4066 2.4816 13.5388 2.54034 13.7297C2.59907 13.8912 2.6725 14.0381 2.7606 14.1555C2.84871 14.273 2.92213 14.3464 3.01024 14.3758C3.05429 14.4052 3.09834 14.4052 3.14239 14.3758C3.17176 14.3611 3.20113 14.3317 3.21582 14.273C3.2305 14.229 3.24518 14.1702 3.2305 14.0968C3.21582 14.0234 3.21582 13.95 3.18645 13.8619C3.14239 13.715 3.08366 13.5975 2.99555 13.4947C2.90744 13.392 2.80465 13.3185 2.70186 13.2745ZM4.30245 14.7723C4.22903 14.5373 4.17029 14.3024 4.09687 14.0674C4.02345 13.8325 3.96471 13.5828 3.92066 13.3332C3.90598 13.2157 3.89129 13.113 3.89129 13.0102C3.89129 12.9074 3.90598 12.834 3.93535 12.7605C3.96471 12.6871 4.00877 12.6431 4.0675 12.599C4.12624 12.5696 4.19966 12.5549 4.28777 12.5549C4.36119 12.5549 4.43461 12.5696 4.49335 12.5843C4.56677 12.5843 4.62551 12.599 4.69893 12.6137C4.80172 12.6137 4.90451 12.6137 5.0073 12.6137C5.11009 12.599 5.21288 12.5843 5.33035 12.5843C5.49188 12.5843 5.60935 12.6431 5.71214 12.7605C5.80025 12.878 5.85899 13.0689 5.87367 13.3185C5.88836 13.5241 5.87367 13.7003 5.81493 13.8325C5.7562 13.9646 5.66809 14.0234 5.52125 14.0087C5.41846 14.0087 5.31567 13.9793 5.21288 13.9206C5.11009 13.8765 5.0073 13.8472 4.90451 13.8325C4.80172 13.8325 4.74298 13.8618 4.69893 13.9646C4.65488 14.0674 4.65488 14.1702 4.66956 14.3024C4.69893 14.4492 4.74298 14.552 4.78703 14.6107C4.83109 14.6695 4.88982 14.6989 4.93388 14.6989C5.02198 14.7135 5.11009 14.7135 5.19819 14.6989C5.2863 14.6842 5.37441 14.6842 5.4772 14.6989C5.5653 14.6989 5.65341 14.7576 5.74151 14.831C5.82962 14.9044 5.88836 15.0219 5.90304 15.1688C5.90304 15.2422 5.90304 15.3156 5.90304 15.3596C5.90304 15.4037 5.87367 15.4478 5.82962 15.4771C5.80025 15.5065 5.77088 15.5212 5.72683 15.5212C5.68278 15.5212 5.63872 15.5212 5.59467 15.5212C5.49188 15.5065 5.40377 15.4771 5.31567 15.4478C5.22756 15.4184 5.12477 15.389 5.03667 15.3596C4.99261 15.3596 4.97793 15.3596 4.96325 15.3743C4.96325 15.4037 4.94856 15.4331 4.94856 15.4624C4.94856 15.5065 4.94856 15.5505 4.96325 15.5946C4.96325 15.6386 4.99261 15.6974 5.0073 15.7414C5.03667 15.8442 5.08072 15.947 5.11009 16.0351C5.13946 16.1232 5.18351 16.1967 5.22756 16.2701C5.27162 16.3288 5.31567 16.3875 5.37441 16.4316C5.43314 16.4757 5.50656 16.5197 5.57999 16.5344C5.62404 16.5491 5.68278 16.5638 5.74151 16.5784C5.80025 16.5931 5.85899 16.5931 5.90304 16.5784C5.93241 16.5784 5.96178 16.5491 5.99115 16.5344C6.02051 16.5197 6.06457 16.505 6.10862 16.5344C6.15267 16.5344 6.21141 16.5784 6.25546 16.6225C6.29951 16.6665 6.34357 16.7253 6.38762 16.7987C6.43167 16.8721 6.46104 16.9456 6.5051 17.019C6.53446 17.1071 6.56383 17.1805 6.5932 17.2686C6.63725 17.4154 6.63725 17.5329 6.62257 17.621C6.5932 17.7091 6.54915 17.7679 6.49041 17.7972C6.43167 17.8266 6.34357 17.8266 6.24078 17.7972C6.13799 17.7679 6.02051 17.7238 5.90304 17.6651C5.82962 17.6357 5.7562 17.577 5.66809 17.5182C5.57999 17.4595 5.49188 17.3714 5.40377 17.2833C5.31567 17.1952 5.22756 17.0924 5.13946 16.9602C5.05135 16.8428 4.96325 16.7106 4.88982 16.5491C4.75767 16.2701 4.64019 15.9764 4.55209 15.6827C4.46398 15.389 4.37587 15.0806 4.28777 14.7576L4.30245 14.7723ZM7.73858 16.9456C7.84137 16.9456 7.91479 16.8868 7.94416 16.7547C7.98821 16.6078 8.00289 16.4169 7.97352 16.1526C7.97352 16.0939 7.97352 16.0204 7.94416 15.9617C7.94416 15.8883 7.92947 15.8149 7.91479 15.7121C7.91479 15.6093 7.88542 15.4918 7.88542 15.3596C7.88542 15.2275 7.85605 15.066 7.85605 14.8751C7.82668 14.3611 7.82668 13.9353 7.85605 13.6122C7.87073 13.2892 7.91479 13.0395 7.97352 12.878C8.01758 12.7605 8.091 12.6431 8.16442 12.5549C8.25252 12.4668 8.32595 12.4228 8.41405 12.4081C8.47279 12.4081 8.53153 12.4081 8.57558 12.4522C8.63432 12.4815 8.67837 12.5256 8.70774 12.599C8.75179 12.6577 8.78116 12.7312 8.79584 12.8193C8.82521 12.9074 8.82521 12.9955 8.82521 13.0983C8.82521 13.2451 8.79584 13.4066 8.75179 13.5975C8.70774 13.7884 8.66369 14.0087 8.61963 14.229C8.57558 14.4639 8.53153 14.6989 8.50216 14.9632C8.47279 15.2275 8.45811 15.4771 8.47279 15.7414C8.47279 15.8589 8.48747 16.0058 8.50216 16.182C8.51684 16.3582 8.53153 16.505 8.54621 16.6372C8.5609 16.9309 8.5609 17.1805 8.54621 17.4154C8.53153 17.6504 8.48747 17.8413 8.42874 17.9881C8.37 18.135 8.31126 18.2525 8.22316 18.3259C8.13505 18.3993 8.03226 18.414 7.92947 18.3846C7.812 18.3552 7.70921 18.2965 7.60642 18.1937C7.50363 18.0909 7.40084 17.9735 7.29805 17.8266C7.19526 17.6798 7.10715 17.5036 7.03373 17.298C6.96031 17.0924 6.88689 16.8721 6.84283 16.6225C6.84283 16.5784 6.82815 16.505 6.81347 16.4316C6.81347 16.3582 6.7841 16.2701 6.76941 16.182C6.76941 16.0939 6.74004 16.0058 6.72536 15.9323C6.72536 15.8442 6.71067 15.7855 6.69599 15.7268C6.66662 15.4918 6.60788 15.2569 6.54915 15.0219C6.49041 14.787 6.38762 14.4933 6.27015 14.1555C6.19673 13.9646 6.15267 13.8178 6.1233 13.7003C6.09394 13.5828 6.07925 13.4801 6.06457 13.392C6.06457 13.3038 6.06457 13.2011 6.09394 13.113C6.1233 13.0248 6.15267 12.9514 6.19673 12.878C6.24078 12.8046 6.28483 12.7605 6.35825 12.7018C6.41699 12.6577 6.47573 12.6284 6.54915 12.6284C6.63725 12.6284 6.71068 12.6577 6.7841 12.7165C6.85752 12.7752 6.91626 12.8633 6.96031 12.9661C6.98968 13.0395 7.01905 13.1423 7.03373 13.3038C7.0631 13.4654 7.09247 13.6416 7.12184 13.8472C7.1512 14.0527 7.18057 14.2583 7.19526 14.4786C7.22463 14.6989 7.23931 14.9191 7.25399 15.1247C7.28336 15.4037 7.29805 15.624 7.29805 15.7855C7.29805 15.9617 7.31273 16.1085 7.3421 16.2407C7.37147 16.461 7.41552 16.6372 7.48894 16.7693C7.54768 16.8868 7.63579 16.9602 7.72389 16.9749L7.73858 16.9456ZM9.26574 15.3743C9.26574 15.2275 9.26574 15.0806 9.23637 14.9338C9.22169 14.787 9.207 14.6254 9.17764 14.4786C9.14827 14.2877 9.13358 14.1996 9.1189 14.0087C9.10421 13.8472 9.07485 13.6856 9.06016 13.5388C9.06016 13.3773 9.04548 13.2304 9.04548 13.0836C9.04548 12.9661 9.04548 12.8633 9.08953 12.7605C9.1189 12.6577 9.14827 12.5549 9.19232 12.4668C9.23637 12.3787 9.29511 12.3053 9.33916 12.2466C9.3979 12.1878 9.45664 12.1438 9.51537 12.1438C9.6769 12.1144 9.79438 12.1878 9.8678 12.3787C9.94122 12.5696 9.97059 12.7899 9.97059 13.0689C9.97059 13.2598 9.97059 13.4507 9.94122 13.6416C9.92653 13.8325 9.89717 14.0381 9.8678 14.229C9.83843 14.4199 9.82374 14.6254 9.80906 14.8016C9.79438 14.9925 9.77969 15.1688 9.77969 15.345C9.77969 15.5505 9.79438 15.7414 9.82374 15.9617C9.85311 16.1673 9.88248 16.3875 9.91185 16.6078C9.94122 16.8281 9.97059 17.0483 9.99996 17.2686C10.0293 17.4889 10.044 17.7238 10.044 17.9441C10.044 18.179 10.0146 18.3699 9.9559 18.5168C9.88248 18.6636 9.79438 18.737 9.66222 18.737C9.60348 18.737 9.55943 18.7077 9.50069 18.6783C9.45664 18.6342 9.3979 18.5902 9.35385 18.5168C9.30979 18.458 9.28043 18.3699 9.25106 18.2818C9.22169 18.1937 9.207 18.1056 9.19232 18.0028C9.17764 17.7826 9.17764 17.5623 9.17764 17.342C9.17764 17.1218 9.19232 16.9015 9.207 16.6812C9.207 16.461 9.23637 16.2407 9.25106 16.0204C9.25106 15.8002 9.26574 15.5946 9.25106 15.389L9.26574 15.3743ZM10.3671 15.0072C10.3671 14.6989 10.3671 14.3758 10.3377 14.0674C10.323 13.7591 10.3083 13.436 10.323 13.113C10.323 12.9661 10.323 12.8193 10.3524 12.6871C10.3671 12.5549 10.3964 12.4375 10.4405 12.3347C10.4845 12.2319 10.5286 12.1438 10.5873 12.0704C10.6461 11.9969 10.7195 11.9529 10.8076 11.9382C10.881 11.9382 10.9398 11.9235 11.0132 11.9088C11.0866 11.9088 11.1453 11.9088 11.2188 11.8795C11.3215 11.8648 11.4243 11.8354 11.5271 11.7914C11.6299 11.7473 11.7327 11.7179 11.8355 11.7033C11.9823 11.6886 12.0998 11.7473 12.1879 11.8795C12.2613 12.0116 12.3054 12.2319 12.2907 12.5256C12.2907 12.7752 12.2467 12.9955 12.1732 13.157C12.0998 13.3185 11.997 13.4213 11.8649 13.436C11.7621 13.436 11.6593 13.436 11.5565 13.4066C11.4537 13.3773 11.3509 13.3626 11.2481 13.392C11.1453 13.4066 11.0719 13.4947 11.0132 13.6416C10.9544 13.7884 10.9251 13.95 10.9104 14.1115C10.9104 14.3024 10.9251 14.4345 10.9691 14.4786C11.0132 14.5226 11.0572 14.552 11.1013 14.5373C11.1894 14.5226 11.2922 14.4933 11.3803 14.4345C11.4831 14.3758 11.5712 14.3464 11.674 14.3317C11.7621 14.3317 11.8502 14.3464 11.9236 14.4199C11.997 14.4933 12.0264 14.6254 12.0264 14.8163C12.0264 14.9191 12.0117 15.0072 11.9823 15.066C11.953 15.1394 11.9236 15.1981 11.8795 15.2422C11.8355 15.2862 11.7914 15.3303 11.7474 15.345C11.7033 15.3743 11.6593 15.389 11.6152 15.389C11.5124 15.4037 11.4243 15.4037 11.3215 15.4037C11.2334 15.4037 11.1306 15.4037 11.0279 15.4184C10.9838 15.4184 10.9544 15.4478 10.9251 15.4918C10.8957 15.5359 10.881 15.5799 10.8663 15.6386C10.8663 15.6974 10.8516 15.7561 10.837 15.8295C10.837 15.903 10.837 15.9617 10.837 16.0351C10.837 16.182 10.837 16.3141 10.837 16.4316C10.837 16.5491 10.8516 16.6372 10.881 16.7106C10.9104 16.784 10.9398 16.8428 10.9985 16.8721C11.0425 16.9015 11.116 16.9162 11.2041 16.9015C11.2628 16.9015 11.3215 16.8868 11.3803 16.8721C11.4537 16.8574 11.5124 16.8281 11.5712 16.7693C11.6152 16.74 11.6593 16.6959 11.7033 16.6519C11.7474 16.6078 11.7914 16.5784 11.8355 16.5638C11.8795 16.5638 11.9236 16.5638 11.9677 16.6078C12.0117 16.6519 12.0411 16.7106 12.0558 16.784C12.0851 16.8574 12.0998 16.9456 12.0998 17.0337C12.0998 17.1364 12.0998 17.2246 12.0998 17.3273C12.0998 17.5036 12.0411 17.6798 11.9823 17.8119C11.9089 17.9588 11.8355 18.0762 11.7327 18.179C11.6299 18.2818 11.5124 18.3699 11.3803 18.4287C11.2481 18.4874 11.116 18.5315 10.9691 18.5461C10.881 18.5461 10.8076 18.5461 10.7195 18.5168C10.6314 18.4874 10.558 18.4287 10.4845 18.3552C10.4111 18.2671 10.3524 18.1643 10.3083 18.0175C10.2643 17.8707 10.2349 17.6945 10.2349 17.4889C10.2349 17.0924 10.2349 16.6812 10.279 16.2701C10.3083 15.8442 10.323 15.4184 10.323 14.9779L10.3671 15.0072ZM14.8017 12.9074C14.8164 12.7752 14.8458 12.6577 14.8751 12.5256C14.9045 12.4081 14.9486 12.3053 15.0073 12.2172C15.066 12.1291 15.1248 12.0704 15.2129 12.0263C15.301 11.9823 15.3891 11.9823 15.4919 11.9969C15.5506 11.9969 15.6094 12.041 15.6534 12.0997C15.6975 12.1585 15.7415 12.2319 15.7709 12.3053C15.8002 12.3787 15.8296 12.4668 15.8296 12.5696C15.8296 12.6724 15.8296 12.7605 15.8296 12.8486C15.8003 13.0102 15.7709 13.157 15.7121 13.3185C15.6534 13.4801 15.6094 13.6416 15.5359 13.8031C15.4772 13.9793 15.4038 14.1555 15.345 14.3611C15.2863 14.552 15.2276 14.7723 15.1688 15.0072C15.066 15.4184 14.9926 15.7708 14.9339 16.0498C14.8751 16.3288 14.8164 16.5344 14.7723 16.6812C14.7283 16.7987 14.6842 16.9015 14.6255 17.0043C14.5668 17.1071 14.508 17.2099 14.4493 17.298C14.3906 17.3861 14.3318 17.4742 14.2584 17.5329C14.1997 17.6063 14.1262 17.6504 14.0675 17.6798C13.9794 17.7238 13.9207 17.7091 13.8766 17.6357C13.8326 17.5623 13.8032 17.4301 13.8032 17.2392C13.8032 17.1658 13.8032 17.063 13.8032 16.9456C13.8032 16.8281 13.8179 16.6959 13.8326 16.5491C13.8326 16.4022 13.8619 16.2701 13.8619 16.1085C13.8619 15.9617 13.8766 15.8295 13.8766 15.6974C13.8766 15.5799 13.8766 15.4771 13.8766 15.4037C13.8766 15.3303 13.8472 15.2862 13.8326 15.2862C13.7885 15.2862 13.7298 15.3743 13.6857 15.5359C13.627 15.6974 13.5682 15.903 13.5095 16.1379C13.4508 16.3729 13.3773 16.6078 13.3186 16.8721C13.2452 17.1218 13.1864 17.342 13.113 17.5329C13.0396 17.7091 12.9662 17.856 12.8928 17.9881C12.8193 18.1203 12.7165 18.2084 12.6138 18.2378C12.4816 18.2818 12.3935 18.2378 12.3348 18.0909C12.276 17.9588 12.2613 17.7532 12.2907 17.4742C12.2907 17.342 12.3201 17.1658 12.3494 16.9896C12.3788 16.7987 12.4229 16.6078 12.4522 16.3875C12.4963 16.182 12.5257 15.9617 12.555 15.7414C12.5844 15.5212 12.6138 15.3009 12.6284 15.0953C12.6431 14.831 12.6431 14.5961 12.6284 14.3905C12.6284 14.1849 12.5991 13.9793 12.5844 13.7884C12.5697 13.5975 12.555 13.4066 12.5403 13.2304C12.5257 13.0542 12.5257 12.8633 12.5403 12.6724C12.5403 12.3494 12.5991 12.0997 12.7019 11.8942C12.79 11.7033 12.9074 11.6005 13.0543 11.6005C13.2158 11.6005 13.348 11.7033 13.4361 11.9088C13.5242 12.1144 13.5536 12.4081 13.5389 12.7899C13.5389 12.9661 13.5095 13.1423 13.4654 13.3332C13.4361 13.5241 13.392 13.7003 13.3627 13.8912C13.3186 14.0821 13.2892 14.2583 13.2599 14.4345C13.2305 14.6107 13.2011 14.7723 13.1864 14.9191C13.1864 14.9925 13.1864 15.0806 13.1718 15.1834C13.1718 15.2862 13.1718 15.389 13.1718 15.4918C13.1718 15.5946 13.1718 15.668 13.1718 15.7414C13.1718 15.8149 13.1864 15.8442 13.2158 15.8295C13.2746 15.8295 13.3186 15.7414 13.392 15.5652C13.4508 15.4037 13.5095 15.2128 13.5682 14.9925C13.627 14.7723 13.671 14.5667 13.7151 14.3464C13.7591 14.1409 13.7885 13.9793 13.8179 13.8765C13.8619 13.7297 13.906 13.6122 13.9647 13.5388C14.0234 13.4654 14.0822 13.436 14.1409 13.436C14.185 13.436 14.229 13.4507 14.2584 13.4801C14.2878 13.5094 14.3171 13.5388 14.3318 13.5975C14.3465 13.6416 14.3612 13.715 14.3759 13.7884C14.3759 13.8619 14.3906 13.9646 14.3906 14.0821C14.3906 14.1409 14.3906 14.2143 14.3906 14.3171C14.3906 14.4199 14.3906 14.5226 14.3906 14.6401C14.3906 14.7576 14.3906 14.8751 14.3906 14.9779C14.3906 15.0953 14.3906 15.1981 14.3906 15.2862C14.3906 15.3743 14.3906 15.4478 14.4052 15.5065C14.4052 15.5652 14.4346 15.5946 14.4493 15.5799C14.464 15.5799 14.4933 15.5505 14.508 15.4771C14.5374 15.4184 14.5521 15.3303 14.5815 15.2422C14.6108 15.1541 14.6255 15.066 14.6549 14.9779C14.6696 14.8898 14.6842 14.8163 14.6989 14.7429C14.7283 14.6107 14.743 14.4639 14.743 14.3171C14.743 14.1702 14.743 14.0087 14.743 13.8472C14.743 13.6856 14.743 13.5094 14.743 13.3479C14.743 13.1864 14.743 13.0102 14.7723 12.8486L14.8017 12.9074ZM17.3274 12.4815C17.4743 12.5109 17.6064 12.5696 17.7092 12.6577C17.812 12.7312 17.8854 12.834 17.9442 12.9367C18.0029 13.0395 18.0176 13.157 18.0176 13.2745C18.0176 13.392 17.9882 13.5241 17.9148 13.6563C17.8414 13.8031 17.7679 13.9206 17.6798 14.0087C17.5917 14.0968 17.5036 14.1409 17.4155 14.1409C17.3568 14.1409 17.3127 14.1409 17.298 14.0968C17.2834 14.0527 17.298 14.0087 17.3127 13.9353C17.3568 13.8325 17.3568 13.7444 17.298 13.671C17.2393 13.6122 17.1365 13.5682 16.9897 13.5535C16.8575 13.5535 16.74 13.5535 16.6373 13.5975C16.5345 13.6416 16.4757 13.715 16.4464 13.8178C16.417 13.9206 16.4317 14.0087 16.4757 14.0821C16.5198 14.1555 16.5932 14.2143 16.6666 14.273C16.7547 14.3317 16.8281 14.3905 16.9163 14.4492C17.0044 14.508 17.0778 14.5667 17.1218 14.6548C17.1659 14.7282 17.1806 14.8163 17.1659 14.9338C17.1512 15.0366 17.0778 15.1688 16.9456 15.345C16.8281 15.4918 16.696 15.6386 16.5638 15.7855C16.4317 15.9177 16.2848 16.0645 16.1527 16.182C16.0205 16.3141 15.8884 16.4316 15.7709 16.5344C15.6534 16.6372 15.5506 16.74 15.4478 16.8134C15.345 16.8868 15.2716 16.9309 15.2129 16.9309C15.1541 16.9309 15.1248 16.9015 15.1101 16.8428C15.0954 16.7693 15.1101 16.6665 15.1101 16.5197C15.1395 16.3729 15.1835 16.182 15.2569 15.9617C15.4331 15.4478 15.6094 15.1688 15.8149 15.1394C15.8884 15.1394 15.9324 15.1394 15.9471 15.1834C15.9618 15.2275 15.9471 15.3009 15.903 15.4037C15.8443 15.5652 15.8149 15.6974 15.8296 15.7708C15.8443 15.8442 15.903 15.8589 16.0058 15.8295C16.0499 15.8149 16.0939 15.7855 16.1527 15.7561C16.1967 15.7268 16.2555 15.6827 16.2995 15.6386C16.3583 15.5946 16.4023 15.5505 16.4464 15.4918C16.4904 15.4478 16.5198 15.389 16.5491 15.345C16.5932 15.2569 16.6079 15.1981 16.5785 15.1688C16.5491 15.1394 16.4904 15.11 16.417 15.0953C16.3436 15.0806 16.2701 15.0513 16.182 15.0219C16.0939 14.9925 16.0205 14.9485 15.9471 14.8751C15.8884 14.8016 15.8443 14.6989 15.8149 14.552C15.7856 14.4052 15.8149 14.2143 15.859 13.9646C15.9177 13.715 15.9911 13.4947 16.0793 13.2892C16.1674 13.0836 16.2848 12.9221 16.4023 12.8046C16.5198 12.6724 16.6666 12.599 16.8135 12.5403C16.9603 12.4962 17.1218 12.4962 17.2834 12.5403L17.3274 12.4815ZM1.87955 7.25392C1.95297 7.03366 2.02639 6.79871 2.09981 6.57844C2.17323 6.34349 2.26134 6.12323 2.36413 5.91765C2.45223 5.71207 2.55502 5.52117 2.65781 5.33028C2.7606 5.15407 2.84871 4.99254 2.9515 4.86038C3.2305 4.44922 3.52419 4.12617 3.77382 3.87653C4.00877 3.6269 4.22903 3.40664 4.43461 3.24511C4.47866 3.20106 4.5374 3.157 4.61082 3.11295C4.68424 3.0689 4.74298 3.01016 4.83109 2.96611C4.94856 2.878 5.08072 2.7899 5.21288 2.68711C5.34504 2.58432 5.46251 2.49621 5.5653 2.43747C5.99115 2.18784 6.07925 2.40811 5.87367 3.157C5.77088 3.49474 5.65341 3.78843 5.49188 4.00869C5.33035 4.22896 5.13946 4.3758 4.93388 4.43454C4.78703 4.47859 4.66956 4.49327 4.55209 4.47859C4.4493 4.47859 4.31714 4.47859 4.18498 4.53733C3.7885 4.69885 3.43608 5.09533 3.18645 5.80018C3.08366 6.09386 3.0396 6.32881 3.08366 6.47565C3.11303 6.63718 3.20113 6.69592 3.34797 6.68123C3.43608 6.66655 3.55355 6.6225 3.71508 6.53439C3.86192 6.46097 4.00877 6.40223 4.15561 6.37286C4.34651 6.32881 4.49335 6.37286 4.58145 6.49034C4.68424 6.60781 4.71361 6.79871 4.66956 7.04834C4.64019 7.29797 4.55209 7.50355 4.43461 7.66508C4.30245 7.82661 4.15561 7.91471 3.9794 7.94408C3.84724 7.94408 3.71508 7.94408 3.58292 7.90003C3.45076 7.85598 3.31861 7.84129 3.17176 7.85598C2.83402 7.88534 2.61376 8.12029 2.55502 8.60488C2.52565 8.81045 2.55502 8.98667 2.58439 9.14819C2.62844 9.30972 2.68718 9.47125 2.74592 9.64746C2.80466 9.82367 2.86339 9.99988 2.92213 10.2055C2.98087 10.411 3.01024 10.6313 3.02492 10.8956C3.02492 11.1012 3.02492 11.2921 2.99555 11.4536C2.96618 11.6298 2.92213 11.762 2.86339 11.8795C2.80466 11.9969 2.73123 12.0704 2.62844 12.1144C2.54034 12.1585 2.42286 12.1585 2.30539 12.1144C2.04107 12.0263 1.80612 11.8207 1.61523 11.527C1.42433 11.2334 1.30686 10.8956 1.27749 10.4845C1.2628 10.1908 1.27749 9.92646 1.30686 9.64746C1.33623 9.38314 1.38028 9.11883 1.4537 8.86919C1.52712 8.61956 1.58586 8.35524 1.65928 8.09092C1.7327 7.82661 1.82081 7.54761 1.89423 7.26861L1.87955 7.25392ZM8.13505 6.44629C8.13505 6.51971 8.1791 6.60781 8.25253 6.68123C8.34063 6.76934 8.42874 6.9015 8.54621 7.07771C8.63432 7.20987 8.72242 7.38608 8.81053 7.59166C8.89863 7.79724 8.98674 8.0175 9.06016 8.28182C9.13358 8.53145 9.19232 8.82514 9.23637 9.13351C9.28043 9.44188 9.29511 9.7943 9.28043 10.1614C9.26574 10.7635 9.17764 11.248 9.01611 11.6152C8.85458 11.9823 8.649 12.1878 8.38468 12.2172C8.10568 12.2613 7.87073 12.1585 7.69452 11.9088C7.51831 11.6592 7.4302 11.3068 7.4302 10.8516C7.4302 10.6607 7.43021 10.4991 7.47426 10.3523C7.50363 10.2055 7.533 10.0586 7.56236 9.91178C7.59173 9.76493 7.63579 9.60341 7.66515 9.44188C7.69452 9.28035 7.70921 9.08946 7.70921 8.86919C7.70921 8.41398 7.67984 8.03219 7.59173 7.75319C7.50363 7.4595 7.3421 7.34203 7.09247 7.3714C6.93094 7.40076 6.79878 7.48887 6.72536 7.6504C6.65194 7.81192 6.60789 8.00282 6.60789 8.22308C6.60789 8.41398 6.62257 8.60488 6.66662 8.82514C6.71068 9.03072 6.74004 9.26567 6.79878 9.48593C6.84283 9.72088 6.88689 9.95583 6.93094 10.2055C6.97499 10.4551 6.98968 10.69 6.98968 10.9397C6.98968 11.4243 6.91625 11.8061 6.76941 12.0851C6.62257 12.3787 6.41699 12.5256 6.1233 12.5403C5.82962 12.5403 5.59467 12.4081 5.41846 12.1291C5.24225 11.8501 5.12477 11.4389 5.12477 10.9103C5.12477 10.7635 5.12477 10.6019 5.12477 10.3964C5.12477 10.1908 5.15414 9.99988 5.16883 9.7943C5.18351 9.58872 5.21288 9.38314 5.24225 9.19225C5.27162 9.00135 5.2863 8.81046 5.31567 8.66361C5.34504 8.42866 5.38909 8.22308 5.41846 8.03219C5.44783 7.84129 5.4772 7.67977 5.50656 7.53292C5.53593 7.38608 5.5653 7.23924 5.57999 7.09239C5.59467 6.96023 5.62404 6.81339 5.63872 6.68123C5.66809 6.34349 5.69746 6.04981 5.71214 5.78549C5.71214 5.52117 5.74151 5.27154 5.7562 5.03659C5.7562 4.80164 5.78557 4.58138 5.80025 4.3758C5.81493 4.17022 5.85899 3.96464 5.90304 3.75906C6.0352 3.18637 6.29952 2.71648 6.63725 2.32C6.97499 1.92352 7.37147 1.62984 7.85605 1.51236C8.07631 1.45363 8.26721 1.46831 8.45811 1.54173C8.63432 1.61515 8.79584 1.74731 8.928 1.95289C9.06016 2.14379 9.16295 2.39342 9.23637 2.70179C9.30979 3.01016 9.35385 3.36258 9.33916 3.78843C9.33916 4.25833 9.26574 4.6548 9.14827 4.96317C9.03079 5.27154 8.88395 5.52117 8.73711 5.72675C8.59026 5.91765 8.45811 6.07918 8.32595 6.18197C8.20847 6.28476 8.13505 6.38755 8.13505 6.47565V6.44629ZM7.54768 3.45069C7.3421 3.49474 7.16589 3.64159 7.01904 3.87653C6.8722 4.11148 6.76941 4.43454 6.72536 4.83101C6.68131 5.19812 6.69599 5.47712 6.76941 5.6827C6.84283 5.8736 6.97499 5.9617 7.1512 5.93233C7.25399 5.91765 7.37147 5.85891 7.48894 5.74144C7.60642 5.63865 7.70921 5.50649 7.79731 5.34496C7.88542 5.18344 7.97352 5.02191 8.03226 4.83101C8.091 4.64012 8.13505 4.46391 8.13505 4.28769C8.14974 3.99401 8.10568 3.77374 8.00289 3.61222C7.9001 3.46537 7.75326 3.40664 7.56236 3.43601L7.54768 3.45069ZM9.9559 5.4037C9.9559 4.90443 9.94122 4.41985 9.91185 3.96464C9.88248 3.50943 9.85311 3.05421 9.85311 2.61369C9.85311 2.40811 9.85311 2.21721 9.88248 2.05568C9.91185 1.87947 9.94122 1.74731 9.99996 1.61515C10.0587 1.49768 10.1321 1.40957 10.2202 1.33615C10.3083 1.27742 10.4258 1.24805 10.558 1.24805C10.6607 1.24805 10.7635 1.26273 10.8663 1.2921C10.9691 1.30678 11.0719 1.32147 11.1747 1.33615C11.3362 1.35084 11.4831 1.36552 11.6299 1.36552C11.7768 1.36552 11.9236 1.38021 12.0704 1.42426C12.2907 1.483 12.4816 1.60047 12.6431 1.79137C12.8047 1.98226 12.9368 2.24658 13.0249 2.58432C13.0983 2.878 13.0983 3.11295 13.0249 3.28916C12.9515 3.46537 12.79 3.5388 12.555 3.50943C12.3788 3.48006 12.2026 3.43601 12.0264 3.36258C11.8502 3.28916 11.674 3.24511 11.4831 3.23043C11.3215 3.23043 11.1894 3.31853 11.0866 3.50943C10.9985 3.70032 10.9544 3.92059 10.9544 4.15554C10.9544 4.43454 11.0132 4.62543 11.0866 4.71354C11.1747 4.80164 11.2628 4.83101 11.3509 4.83101C11.5271 4.83101 11.7033 4.80164 11.8795 4.74291C12.0558 4.68417 12.232 4.66949 12.4082 4.68417C12.5697 4.68417 12.7312 4.77228 12.8781 4.90443C13.0249 5.03659 13.113 5.24217 13.1424 5.52117C13.1424 5.66802 13.1424 5.78549 13.0983 5.88828C13.0543 5.99107 12.9956 6.06449 12.9221 6.12323C12.8487 6.18197 12.7753 6.22602 12.6872 6.24071C12.5991 6.27007 12.511 6.27007 12.4229 6.27007C12.232 6.27007 12.0411 6.25539 11.8502 6.22602C11.6593 6.19665 11.4684 6.19665 11.2775 6.19665C11.2041 6.19665 11.1306 6.24071 11.0866 6.29944C11.0425 6.35818 10.9985 6.44628 10.9838 6.53439C10.9544 6.63718 10.9398 6.73997 10.9398 6.85745C10.9398 6.97492 10.9398 7.09239 10.9398 7.20987C10.9398 7.4595 10.9398 7.67977 10.9398 7.88535C10.9398 8.09093 10.9691 8.25245 11.0279 8.38461C11.0719 8.51677 11.1453 8.61956 11.2481 8.66361C11.3509 8.72235 11.4978 8.73703 11.6886 8.72235C11.8061 8.72235 11.9236 8.69298 12.0704 8.6783C12.2173 8.66361 12.3494 8.61956 12.4669 8.54614C12.555 8.50209 12.6431 8.44335 12.7312 8.36993C12.8193 8.31119 12.9221 8.26714 13.0249 8.28182C13.1277 8.28182 13.2305 8.32587 13.3039 8.41398C13.392 8.50209 13.4508 8.60488 13.5095 8.75172C13.5536 8.88388 13.5976 9.0454 13.6123 9.20693C13.627 9.38314 13.627 9.54467 13.6123 9.72088C13.5829 10.0293 13.4801 10.2936 13.3186 10.5138C13.1571 10.7341 12.9662 10.9103 12.7312 11.0572C12.4963 11.204 12.2467 11.3362 11.953 11.4243C11.674 11.527 11.3803 11.6005 11.0719 11.6592C10.8957 11.6886 10.7195 11.6886 10.558 11.6592C10.3817 11.6298 10.2349 11.5417 10.1027 11.4096C9.97059 11.2774 9.8678 11.0865 9.77969 10.8222C9.69159 10.5726 9.66222 10.2348 9.6769 9.82367C9.70627 9.07477 9.75032 8.29651 9.83843 7.54761C9.92653 6.79871 9.97059 6.07918 9.97059 5.37433L9.9559 5.4037ZM15.8296 10.2201C15.8003 10.411 15.7562 10.6166 15.6975 10.8075C15.624 10.9984 15.5506 11.1746 15.4331 11.3215C15.3304 11.4683 15.1982 11.5711 15.066 11.6592C14.9339 11.7326 14.7723 11.762 14.5961 11.7179C14.3465 11.6592 14.1703 11.5124 14.0675 11.248C13.95 10.9837 13.9207 10.69 13.9794 10.3376C14.0234 10.0146 14.0822 9.69151 14.1409 9.35377C14.1997 9.01604 14.2731 8.6783 14.3171 8.34056C14.3759 8.00282 14.4052 7.6504 14.4346 7.29797C14.464 6.94555 14.464 6.57844 14.4346 6.21134C14.3906 5.72675 14.3171 5.33028 14.2437 5.02191C14.1703 4.71354 14.0822 4.46391 14.0088 4.24364C13.9353 4.02338 13.8619 3.8178 13.7885 3.6269C13.7151 3.43601 13.6417 3.20106 13.5829 2.95142C13.5389 2.77521 13.5095 2.61369 13.5095 2.49621C13.5095 2.37874 13.5242 2.27595 13.5536 2.21721C13.5829 2.14379 13.627 2.11442 13.6857 2.09974C13.7444 2.08505 13.8032 2.09974 13.8913 2.1291C13.9941 2.17316 14.1116 2.27595 14.2584 2.40811C14.4052 2.54026 14.5374 2.70179 14.6989 2.89269C14.8605 3.11295 15.0514 3.37727 15.2422 3.70032C15.4331 4.02338 15.6387 4.39048 15.8149 4.78696C16.0058 5.18344 16.182 5.5946 16.3289 6.00576C16.4904 6.41692 16.6226 6.81339 16.74 7.16581C16.8575 7.51824 16.9603 7.82661 17.0631 8.06156C17.1659 8.31119 17.254 8.44335 17.3568 8.47272C17.3862 8.47272 17.4155 8.44335 17.4302 8.36993C17.4302 8.28182 17.4302 8.16435 17.4302 8.0175C17.4008 7.75319 17.3274 7.40076 17.2099 6.97492C17.0925 6.54908 16.9456 6.13792 16.7694 5.71207C16.5932 5.30091 16.417 4.91912 16.2408 4.58138C16.0646 4.24364 15.9324 4.00869 15.8443 3.86185C15.7709 3.72969 15.7121 3.61222 15.6681 3.50943C15.624 3.40664 15.5947 3.33322 15.58 3.27448C15.58 3.21574 15.58 3.20106 15.6094 3.20106C15.6387 3.20106 15.6975 3.24511 15.7856 3.31853C15.9471 3.45069 16.1233 3.6269 16.3436 3.84717C16.5638 4.06743 16.7694 4.28769 16.9456 4.50796C17.0631 4.6548 17.1512 4.78696 17.2393 4.9338C17.3274 5.08065 17.4008 5.2128 17.4596 5.35965C17.5624 5.57991 17.6798 5.84423 17.7826 6.16728C17.8854 6.49034 18.0469 6.94555 18.1791 7.53292C18.2525 7.82661 18.3259 8.10561 18.3994 8.3993C18.4728 8.69298 18.5462 8.98667 18.6196 9.28035C18.6931 9.57404 18.7371 9.88241 18.7665 10.2055C18.7958 10.5138 18.7958 10.8369 18.7518 11.1746C18.6784 11.6739 18.5315 11.9969 18.3553 12.1878C18.1791 12.3787 17.9588 12.4375 17.6945 12.3787C17.5477 12.3494 17.4302 12.2759 17.3421 12.1878C17.254 12.0997 17.1806 11.9529 17.1072 11.762C17.0044 11.4977 16.9309 11.1599 16.8722 10.7635C16.8135 10.367 16.74 9.94114 16.6666 9.48593C16.5932 9.03072 16.5051 8.59019 16.417 8.14966C16.3289 7.70913 16.2261 7.32734 16.1233 6.97492C16.0205 6.63718 15.9177 6.35818 15.8296 6.13791C15.7415 5.91765 15.6681 5.81486 15.5947 5.78549C15.5212 5.75612 15.4772 5.78549 15.4625 5.90297C15.4625 6.00576 15.4625 6.13791 15.4772 6.31413C15.5066 6.50502 15.5359 6.72529 15.58 6.94555C15.624 7.1805 15.6534 7.34203 15.6681 7.44482C15.7562 7.91471 15.8296 8.38461 15.8737 8.85451C15.9177 9.32441 15.9177 9.77962 15.8737 10.2055L15.8296 10.2201Z" fill="url(#paint0_linear_4918_12679)"/>
<defs>
<linearGradient id="paint0_linear_4918_12679" x1="2.7576" y1="5.9703" x2="17.8041" y2="14.5529" gradientUnits="userSpaceOnUse">
<stop stop-color="#FF68EB"/>
<stop offset="0.354167" stop-color="#FFB0B6"/>
<stop offset="0.666667" stop-color="#F8D99E"/>
<stop offset="1" stop-color="#D4F178"/>
</linearGradient>
</defs>
</svg>
